<?xml version="1.0" ?><svg data-name="Layer 1" id="Layer_1" viewBox="0 0 512 512" xmlns="http://www.w3.org/2000/svg"><path d="M191.27,310.47c28.15,24.29,63.83,21.89,64.17,21.75.26,0,1.65.12,3.91.12,10.23,0,38.32-2,61.39-21.87,19.06-16.44,29.86-40.85,32.12-72.55,6.87-96.57-88.22-171.7-92.27-174.85a7.46,7.46,0,0,0-9.17,0c-4,3.15-99.14,78.28-92.27,174.85C161.4,269.62,172.21,294,191.27,310.47ZM256,78.68c18.65,16.1,87.45,81,82,158.18-2.55,35.72-16.82,60.06-42.43,72.36a87.69,87.69,0,0,1-40.08,8.11,86.68,86.68,0,0,1-39-8.11c-25.61-12.3-39.88-36.64-42.43-72.36C168.56,159.85,237.37,94.81,256,78.68Z"/><path d="M254.12,288.92c1.41,0,2.28-.06,2.45-.08a7.47,7.47,0,0,0,6.88-8,7.33,7.33,0,0,0-8-6.87c-.17,0-17.23,1-30-10-8.8-7.58-13.81-19.29-14.92-34.79a7.36,7.36,0,0,0-8-6.91,7.46,7.46,0,0,0-6.91,8c1.39,19.6,8.14,34.75,20.05,45C230.12,287.68,247.72,288.92,254.12,288.92Z"/><path d="M118.18,337.55c0,33.77,59.25,59.24,137.82,59.24s137.82-25.47,137.82-59.24c0-7.88-3.4-19.7-19.6-31.24a7.46,7.46,0,1,0-8.66,12.16c6.08,4.33,13.33,11.16,13.33,19.08,0,21-50.47,44.31-122.89,44.31s-122.89-23.35-122.89-44.31c0-7.91,7.26-14.74,13.34-19.07a7.47,7.47,0,0,0-8.66-12.17C121.58,317.86,118.18,329.68,118.18,337.55Z"/><path d="M379.66,255.42a7.46,7.46,0,0,0-5,14.07c50,17.7,79.8,45.22,79.8,73.63,0,50.12-90.89,92.46-198.47,92.46S57.53,393.24,57.53,343.12c0-28.41,29.83-55.93,79.8-73.63a7.46,7.46,0,1,0-5-14.07c-57,20.2-89.74,52.16-89.74,87.7,0,60.22,93.74,107.39,213.4,107.39s213.4-47.17,213.4-107.39C469.4,307.58,436.69,275.62,379.66,255.42Z"/></svg>